<svg width="64" height="86" viewBox="0 0 64 86" fill="none" xmlns="http://www.w3.org/2000/svg">
<circle cx="32" cy="32" r="32" fill="#25D366" fill-opacity="0.1"/>
<path d="M7.625 80.4219L9.31836 74.4688H10.1387L9.66406 76.7832L7.8418 83H7.02734L7.625 80.4219ZM5.87305 74.4688L7.2207 80.3047L7.625 83H6.81641L4.74805 74.4688H5.87305ZM12.3301 80.2988L13.6484 74.4688H14.7793L12.7168 83H11.9082L12.3301 80.2988ZM10.2617 74.4688L11.9082 80.4219L12.5059 83H11.6914L9.93359 76.7832L9.45312 74.4688H10.2617ZM16.9531 74V83H15.8691V74H16.9531ZM16.6953 79.5898L16.2441 79.5723C16.248 79.1387 16.3125 78.7383 16.4375 78.3711C16.5625 78 16.7383 77.6777 16.9648 77.4043C17.1914 77.1309 17.4609 76.9199 17.7734 76.7715C18.0898 76.6191 18.4395 76.543 18.8223 76.543C19.1348 76.543 19.416 76.5859 19.666 76.6719C19.916 76.7539 20.1289 76.8867 20.3047 77.0703C20.4844 77.2539 20.6211 77.4922 20.7148 77.7852C20.8086 78.0742 20.8555 78.4277 20.8555 78.8457V83H19.7656V78.834C19.7656 78.502 19.7168 78.2363 19.6191 78.0371C19.5215 77.834 19.3789 77.6875 19.1914 77.5977C19.0039 77.5039 18.7734 77.457 18.5 77.457C18.2305 77.457 17.9844 77.5137 17.7617 77.627C17.543 77.7402 17.3535 77.8965 17.1934 78.0957C17.0371 78.2949 16.9141 78.5234 16.8242 78.7812C16.7383 79.0352 16.6953 79.3047 16.6953 79.5898ZM26.2168 81.916V78.6523C26.2168 78.4023 26.166 78.1855 26.0645 78.002C25.9668 77.8145 25.8184 77.6699 25.6191 77.5684C25.4199 77.4668 25.1738 77.416 24.8809 77.416C24.6074 77.416 24.3672 77.4629 24.1602 77.5566C23.957 77.6504 23.7969 77.7734 23.6797 77.9258C23.5664 78.0781 23.5098 78.2422 23.5098 78.418H22.4258C22.4258 78.1914 22.4844 77.9668 22.6016 77.7441C22.7188 77.5215 22.8867 77.3203 23.1055 77.1406C23.3281 76.957 23.5938 76.8125 23.9023 76.707C24.2148 76.5977 24.5625 76.543 24.9453 76.543C25.4062 76.543 25.8125 76.6211 26.1641 76.7773C26.5195 76.9336 26.7969 77.1699 26.9961 77.4863C27.1992 77.7988 27.3008 78.1914 27.3008 78.6641V81.6172C27.3008 81.8281 27.3184 82.0527 27.3535 82.291C27.3926 82.5293 27.4492 82.7344 27.5234 82.9062V83H26.3926C26.3379 82.875 26.2949 82.709 26.2637 82.502C26.2324 82.291 26.2168 82.0957 26.2168 81.916ZM26.4043 79.1562L26.416 79.918H25.3203C25.0117 79.918 24.7363 79.9434 24.4941 79.9941C24.252 80.041 24.0488 80.1133 23.8848 80.2109C23.7207 80.3086 23.5957 80.4316 23.5098 80.5801C23.4238 80.7246 23.3809 80.8945 23.3809 81.0898C23.3809 81.2891 23.4258 81.4707 23.5156 81.6348C23.6055 81.7988 23.7402 81.9297 23.9199 82.0273C24.1035 82.1211 24.3281 82.168 24.5938 82.168C24.9258 82.168 25.2188 82.0977 25.4727 81.957C25.7266 81.8164 25.9277 81.6445 26.0762 81.4414C26.2285 81.2383 26.3105 81.041 26.3223 80.8496L26.7852 81.3711C26.7578 81.5352 26.6836 81.7168 26.5625 81.916C26.4414 82.1152 26.2793 82.3066 26.0762 82.4902C25.877 82.6699 25.6387 82.8203 25.3613 82.9414C25.0879 83.0586 24.7793 83.1172 24.4355 83.1172C24.0059 83.1172 23.6289 83.0332 23.3047 82.8652C22.9844 82.6973 22.7344 82.4727 22.5547 82.1914C22.3789 81.9062 22.291 81.5879 22.291 81.2363C22.291 80.8965 22.3574 80.5977 22.4902 80.3398C22.623 80.0781 22.8145 79.8613 23.0645 79.6895C23.3145 79.5137 23.6152 79.3809 23.9668 79.291C24.3184 79.2012 24.7109 79.1562 25.1445 79.1562H26.4043ZM31.6602 76.6602V77.4922H28.2324V76.6602H31.6602ZM29.3926 75.1191H30.4766V81.4297C30.4766 81.6445 30.5098 81.8066 30.5762 81.916C30.6426 82.0254 30.7285 82.0977 30.834 82.1328C30.9395 82.168 31.0527 82.1855 31.1738 82.1855C31.2637 82.1855 31.3574 82.1777 31.4551 82.1621C31.5566 82.1426 31.6328 82.127 31.6836 82.1152L31.6895 83C31.6035 83.0273 31.4902 83.0527 31.3496 83.0762C31.2129 83.1035 31.0469 83.1172 30.8516 83.1172C30.5859 83.1172 30.3418 83.0645 30.1191 82.959C29.8965 82.8535 29.7188 82.6777 29.5859 82.4316C29.457 82.1816 29.3926 81.8457 29.3926 81.4238V75.1191ZM36.623 81.3184C36.623 81.1621 36.5879 81.0176 36.5176 80.8848C36.4512 80.748 36.3125 80.625 36.1016 80.5156C35.8945 80.4023 35.582 80.3047 35.1641 80.2227C34.8125 80.1484 34.4941 80.0605 34.209 79.959C33.9277 79.8574 33.6875 79.7344 33.4883 79.5898C33.293 79.4453 33.1426 79.2754 33.0371 79.0801C32.9316 78.8848 32.8789 78.6562 32.8789 78.3945C32.8789 78.1445 32.9336 77.9082 33.043 77.6855C33.1562 77.4629 33.3145 77.2656 33.5176 77.0938C33.7246 76.9219 33.9727 76.7871 34.2617 76.6895C34.5508 76.5918 34.873 76.543 35.2285 76.543C35.7363 76.543 36.1699 76.6328 36.5293 76.8125C36.8887 76.9922 37.1641 77.2324 37.3555 77.5332C37.5469 77.8301 37.6426 78.1602 37.6426 78.5234H36.5586C36.5586 78.3477 36.5059 78.1777 36.4004 78.0137C36.2988 77.8457 36.1484 77.707 35.9492 77.5977C35.7539 77.4883 35.5137 77.4336 35.2285 77.4336C34.9277 77.4336 34.6836 77.4805 34.4961 77.5742C34.3125 77.6641 34.1777 77.7793 34.0918 77.9199C34.0098 78.0605 33.9688 78.209 33.9688 78.3652C33.9688 78.4824 33.9883 78.5879 34.0273 78.6816C34.0703 78.7715 34.1445 78.8555 34.25 78.9336C34.3555 79.0078 34.5039 79.0781 34.6953 79.1445C34.8867 79.2109 35.1309 79.2773 35.4277 79.3438C35.9473 79.4609 36.375 79.6016 36.7109 79.7656C37.0469 79.9297 37.2969 80.1309 37.4609 80.3691C37.625 80.6074 37.707 80.8965 37.707 81.2363C37.707 81.5137 37.6484 81.7676 37.5312 81.998C37.418 82.2285 37.252 82.4277 37.0332 82.5957C36.8184 82.7598 36.5605 82.8887 36.2598 82.9824C35.9629 83.0723 35.6289 83.1172 35.2578 83.1172C34.6992 83.1172 34.2266 83.0176 33.8398 82.8184C33.4531 82.6191 33.1602 82.3613 32.9609 82.0449C32.7617 81.7285 32.6621 81.3945 32.6621 81.043H33.752C33.7676 81.3398 33.8535 81.5762 34.0098 81.752C34.166 81.9238 34.3574 82.0469 34.584 82.1211C34.8105 82.1914 35.0352 82.2266 35.2578 82.2266C35.5547 82.2266 35.8027 82.1875 36.002 82.1094C36.2051 82.0312 36.3594 81.9238 36.4648 81.7871C36.5703 81.6504 36.623 81.4941 36.623 81.3184ZM42.4531 75.2246L39.6289 83H38.4746L41.7266 74.4688H42.4707L42.4531 75.2246ZM44.8203 83L41.9902 75.2246L41.9727 74.4688H42.7168L45.9805 83H44.8203ZM44.6738 79.8418V80.7676H39.8809V79.8418H44.6738ZM48.043 77.8789V85.4375H46.9531V76.6602H47.9492L48.043 77.8789ZM52.3145 79.7773V79.9004C52.3145 80.3613 52.2598 80.7891 52.1504 81.1836C52.041 81.5742 51.8809 81.9141 51.6699 82.2031C51.4629 82.4922 51.207 82.7168 50.9023 82.877C50.5977 83.0371 50.248 83.1172 49.8535 83.1172C49.4512 83.1172 49.0957 83.0508 48.7871 82.918C48.4785 82.7852 48.2168 82.5918 48.002 82.3379C47.7871 82.084 47.6152 81.7793 47.4863 81.4238C47.3613 81.0684 47.2754 80.668 47.2285 80.2227V79.5664C47.2754 79.0977 47.3633 78.6777 47.4922 78.3066C47.6211 77.9355 47.791 77.6191 48.002 77.3574C48.2168 77.0918 48.4766 76.8906 48.7812 76.7539C49.0859 76.6133 49.4375 76.543 49.8359 76.543C50.2344 76.543 50.5879 76.6211 50.8965 76.7773C51.2051 76.9297 51.4648 77.1484 51.6758 77.4336C51.8867 77.7188 52.0449 78.0605 52.1504 78.459C52.2598 78.8535 52.3145 79.293 52.3145 79.7773ZM51.2246 79.9004V79.7773C51.2246 79.4609 51.1914 79.1641 51.125 78.8867C51.0586 78.6055 50.9551 78.3594 50.8145 78.1484C50.6777 77.9336 50.502 77.7656 50.2871 77.6445C50.0723 77.5195 49.8164 77.457 49.5195 77.457C49.2461 77.457 49.0078 77.5039 48.8047 77.5977C48.6055 77.6914 48.4355 77.8184 48.2949 77.9785C48.1543 78.1348 48.0391 78.3145 47.9492 78.5176C47.8633 78.7168 47.7988 78.9238 47.7559 79.1387V80.6562C47.834 80.9297 47.9434 81.1875 48.084 81.4297C48.2246 81.668 48.4121 81.8613 48.6465 82.0098C48.8809 82.1543 49.1758 82.2266 49.5312 82.2266C49.8242 82.2266 50.0762 82.166 50.2871 82.0449C50.502 81.9199 50.6777 81.75 50.8145 81.5352C50.9551 81.3203 51.0586 81.0742 51.125 80.7969C51.1914 80.5156 51.2246 80.2168 51.2246 79.9004ZM54.7812 77.8789V85.4375H53.6914V76.6602H54.6875L54.7812 77.8789ZM59.0527 79.7773V79.9004C59.0527 80.3613 58.998 80.7891 58.8887 81.1836C58.7793 81.5742 58.6191 81.9141 58.4082 82.2031C58.2012 82.4922 57.9453 82.7168 57.6406 82.877C57.3359 83.0371 56.9863 83.1172 56.5918 83.1172C56.1895 83.1172 55.834 83.0508 55.5254 82.918C55.2168 82.7852 54.9551 82.5918 54.7402 82.3379C54.5254 82.084 54.3535 81.7793 54.2246 81.4238C54.0996 81.0684 54.0137 80.668 53.9668 80.2227V79.5664C54.0137 79.0977 54.1016 78.6777 54.2305 78.3066C54.3594 77.9355 54.5293 77.6191 54.7402 77.3574C54.9551 77.0918 55.2148 76.8906 55.5195 76.7539C55.8242 76.6133 56.1758 76.543 56.5742 76.543C56.9727 76.543 57.3262 76.6211 57.6348 76.7773C57.9434 76.9297 58.2031 77.1484 58.4141 77.4336C58.625 77.7188 58.7832 78.0605 58.8887 78.459C58.998 78.8535 59.0527 79.293 59.0527 79.7773ZM57.9629 79.9004V79.7773C57.9629 79.4609 57.9297 79.1641 57.8633 78.8867C57.7969 78.6055 57.6934 78.3594 57.5527 78.1484C57.416 77.9336 57.2402 77.7656 57.0254 77.6445C56.8105 77.5195 56.5547 77.457 56.2578 77.457C55.9844 77.457 55.7461 77.5039 55.543 77.5977C55.3438 77.6914 55.1738 77.8184 55.0332 77.9785C54.8926 78.1348 54.7773 78.3145 54.6875 78.5176C54.6016 78.7168 54.5371 78.9238 54.4941 79.1387V80.6562C54.5723 80.9297 54.6816 81.1875 54.8223 81.4297C54.9629 81.668 55.1504 81.8613 55.3848 82.0098C55.6191 82.1543 55.9141 82.2266 56.2695 82.2266C56.5625 82.2266 56.8145 82.166 57.0254 82.0449C57.2402 81.9199 57.416 81.75 57.5527 81.5352C57.6934 81.3203 57.7969 81.0742 57.8633 80.7969C57.9297 80.5156 57.9629 80.2168 57.9629 79.9004Z" fill="#25D366"/>
<path d="M40.4054 23.4875C38.1607 21.2375 35.1714 20 31.9946 20C25.4375 20 20.1018 25.3357 20.1018 31.8929C20.1018 33.9875 20.6482 36.0339 21.6875 37.8393L20 44L26.3054 42.3446C28.0411 43.2929 29.9964 43.7911 31.9893 43.7911H31.9946C38.5464 43.7911 44 38.4554 44 31.8982C44 28.7214 42.65 25.7375 40.4054 23.4875V23.4875ZM31.9946 41.7875C30.2161 41.7875 28.475 41.3107 26.9589 40.4107L26.6 40.1964L22.8607 41.1768L23.8571 37.5286L23.6214 37.1536C22.6304 35.5786 22.1107 33.7625 22.1107 31.8929C22.1107 26.4446 26.5464 22.0089 32 22.0089C34.6411 22.0089 37.1214 23.0375 38.9857 24.9071C40.85 26.7768 41.9964 29.2571 41.9911 31.8982C41.9911 37.3518 37.4429 41.7875 31.9946 41.7875V41.7875ZM37.4161 34.3839C37.1214 34.2339 35.6589 33.5161 35.3857 33.4196C35.1125 33.3179 34.9143 33.2696 34.7161 33.5696C34.5179 33.8696 33.95 34.5339 33.7732 34.7375C33.6018 34.9357 33.425 34.9625 33.1304 34.8125C31.3839 33.9393 30.2375 33.2536 29.0857 31.2768C28.7804 30.7518 29.3911 30.7893 29.9589 29.6536C30.0554 29.4554 30.0071 29.2839 29.9321 29.1339C29.8571 28.9839 29.2625 27.5214 29.0161 26.9268C28.775 26.3482 28.5286 26.4286 28.3464 26.4179C28.175 26.4071 27.9768 26.4071 27.7786 26.4071C27.5804 26.4071 27.2589 26.4821 26.9857 26.7768C26.7125 27.0768 25.9464 27.7946 25.9464 29.2571C25.9464 30.7196 27.0125 32.1339 27.1571 32.3321C27.3071 32.5304 29.2518 35.5304 32.2357 36.8214C34.1214 37.6357 34.8607 37.7054 35.8036 37.5661C36.3768 37.4804 37.5607 36.8482 37.8071 36.1518C38.0536 35.4554 38.0536 34.8607 37.9786 34.7375C37.9089 34.6036 37.7107 34.5286 37.4161 34.3839Z" fill="#25D366"/>
</svg>
