<svg width="64" height="86" viewBox="0 0 64 86" fill="none" xmlns="http://www.w3.org/2000/svg">
<circle cx="32" cy="32" r="32" fill="#1877F2" fill-opacity="0.1"/>
<path d="M8.56445 74.4688V83H7.43359V74.4688H8.56445ZM12.1387 78.3066V79.2324H8.31836V78.3066H12.1387ZM12.7188 74.4688V75.3945H8.31836V74.4688H12.7188ZM17.4414 81.916V78.6523C17.4414 78.4023 17.3906 78.1855 17.2891 78.002C17.1914 77.8145 17.043 77.6699 16.8438 77.5684C16.6445 77.4668 16.3984 77.416 16.1055 77.416C15.832 77.416 15.5918 77.4629 15.3848 77.5566C15.1816 77.6504 15.0215 77.7734 14.9043 77.9258C14.791 78.0781 14.7344 78.2422 14.7344 78.418H13.6504C13.6504 78.1914 13.709 77.9668 13.8262 77.7441C13.9434 77.5215 14.1113 77.3203 14.3301 77.1406C14.5527 76.957 14.8184 76.8125 15.127 76.707C15.4395 76.5977 15.7871 76.543 16.1699 76.543C16.6309 76.543 17.0371 76.6211 17.3887 76.7773C17.7441 76.9336 18.0215 77.1699 18.2207 77.4863C18.4238 77.7988 18.5254 78.1914 18.5254 78.6641V81.6172C18.5254 81.8281 18.543 82.0527 18.5781 82.291C18.6172 82.5293 18.6738 82.7344 18.748 82.9062V83H17.6172C17.5625 82.875 17.5195 82.709 17.4883 82.502C17.457 82.291 17.4414 82.0957 17.4414 81.916ZM17.6289 79.1562L17.6406 79.918H16.5449C16.2363 79.918 15.9609 79.9434 15.7188 79.9941C15.4766 80.041 15.2734 80.1133 15.1094 80.2109C14.9453 80.3086 14.8203 80.4316 14.7344 80.5801C14.6484 80.7246 14.6055 80.8945 14.6055 81.0898C14.6055 81.2891 14.6504 81.4707 14.7402 81.6348C14.8301 81.7988 14.9648 81.9297 15.1445 82.0273C15.3281 82.1211 15.5527 82.168 15.8184 82.168C16.1504 82.168 16.4434 82.0977 16.6973 81.957C16.9512 81.8164 17.1523 81.6445 17.3008 81.4414C17.4531 81.2383 17.5352 81.041 17.5469 80.8496L18.0098 81.3711C17.9824 81.5352 17.9082 81.7168 17.7871 81.916C17.666 82.1152 17.5039 82.3066 17.3008 82.4902C17.1016 82.6699 16.8633 82.8203 16.5859 82.9414C16.3125 83.0586 16.0039 83.1172 15.6602 83.1172C15.2305 83.1172 14.8535 83.0332 14.5293 82.8652C14.209 82.6973 13.959 82.4727 13.7793 82.1914C13.6035 81.9062 13.5156 81.5879 13.5156 81.2363C13.5156 80.8965 13.582 80.5977 13.7148 80.3398C13.8477 80.0781 14.0391 79.8613 14.2891 79.6895C14.5391 79.5137 14.8398 79.3809 15.1914 79.291C15.543 79.2012 15.9355 79.1562 16.3691 79.1562H17.6289ZM22.7676 82.2266C23.0254 82.2266 23.2637 82.1738 23.4824 82.0684C23.7012 81.9629 23.8809 81.8184 24.0215 81.6348C24.1621 81.4473 24.2422 81.2344 24.2617 80.9961H25.293C25.2734 81.3711 25.1465 81.7207 24.9121 82.0449C24.6816 82.3652 24.3789 82.625 24.0039 82.8242C23.6289 83.0195 23.2168 83.1172 22.7676 83.1172C22.291 83.1172 21.875 83.0332 21.5195 82.8652C21.168 82.6973 20.875 82.4668 20.6406 82.1738C20.4102 81.8809 20.2363 81.5449 20.1191 81.166C20.0059 80.7832 19.9492 80.3789 19.9492 79.9531V79.707C19.9492 79.2812 20.0059 78.8789 20.1191 78.5C20.2363 78.1172 20.4102 77.7793 20.6406 77.4863C20.875 77.1934 21.168 76.9629 21.5195 76.7949C21.875 76.627 22.291 76.543 22.7676 76.543C23.2637 76.543 23.6973 76.6445 24.0684 76.8477C24.4395 77.0469 24.7305 77.3203 24.9414 77.668C25.1562 78.0117 25.2734 78.4023 25.293 78.8398H24.2617C24.2422 78.5781 24.168 78.3418 24.0391 78.1309C23.9141 77.9199 23.7422 77.752 23.5234 77.627C23.3086 77.498 23.0566 77.4336 22.7676 77.4336C22.4355 77.4336 22.1562 77.5 21.9297 77.6328C21.707 77.7617 21.5293 77.9375 21.3965 78.1602C21.2676 78.3789 21.1738 78.623 21.1152 78.8926C21.0605 79.1582 21.0332 79.4297 21.0332 79.707V79.9531C21.0332 80.2305 21.0605 80.5039 21.1152 80.7734C21.1699 81.043 21.2617 81.2871 21.3906 81.5059C21.5234 81.7246 21.7012 81.9004 21.9238 82.0332C22.1504 82.1621 22.4316 82.2266 22.7676 82.2266ZM29.1426 83.1172C28.7012 83.1172 28.3008 83.043 27.9414 82.8945C27.5859 82.7422 27.2793 82.5293 27.0215 82.2559C26.7676 81.9824 26.5723 81.6582 26.4355 81.2832C26.2988 80.9082 26.2305 80.498 26.2305 80.0527V79.8066C26.2305 79.291 26.3066 78.832 26.459 78.4297C26.6113 78.0234 26.8184 77.6797 27.0801 77.3984C27.3418 77.1172 27.6387 76.9043 27.9707 76.7598C28.3027 76.6152 28.6465 76.543 29.002 76.543C29.4551 76.543 29.8457 76.6211 30.1738 76.7773C30.5059 76.9336 30.7773 77.1523 30.9883 77.4336C31.1992 77.7109 31.3555 78.0391 31.457 78.418C31.5586 78.793 31.6094 79.2031 31.6094 79.6484V80.1348H26.875V79.25H30.5254V79.168C30.5098 78.8867 30.4512 78.6133 30.3496 78.3477C30.252 78.082 30.0957 77.8633 29.8809 77.6914C29.666 77.5195 29.373 77.4336 29.002 77.4336C28.7559 77.4336 28.5293 77.4863 28.3223 77.5918C28.1152 77.6934 27.9375 77.8457 27.7891 78.0488C27.6406 78.252 27.5254 78.5 27.4434 78.793C27.3613 79.0859 27.3203 79.4238 27.3203 79.8066V80.0527C27.3203 80.3535 27.3613 80.6367 27.4434 80.9023C27.5293 81.1641 27.6523 81.3945 27.8125 81.5938C27.9766 81.793 28.1738 81.9492 28.4043 82.0625C28.6387 82.1758 28.9043 82.2324 29.2012 82.2324C29.584 82.2324 29.9082 82.1543 30.1738 81.998C30.4395 81.8418 30.6719 81.6328 30.8711 81.3711L31.5273 81.8926C31.3906 82.0996 31.2168 82.2969 31.0059 82.4844C30.7949 82.6719 30.5352 82.8242 30.2266 82.9414C29.9219 83.0586 29.5605 83.1172 29.1426 83.1172ZM32.8691 74H33.959V81.7695L33.8652 83H32.8691V74ZM38.2422 79.7773V79.9004C38.2422 80.3613 38.1875 80.7891 38.0781 81.1836C37.9688 81.5742 37.8086 81.9141 37.5977 82.2031C37.3867 82.4922 37.1289 82.7168 36.8242 82.877C36.5195 83.0371 36.1699 83.1172 35.7754 83.1172C35.373 83.1172 35.0195 83.0488 34.7148 82.9121C34.4141 82.7715 34.1602 82.5703 33.9531 82.3086C33.7461 82.0469 33.5801 81.7305 33.4551 81.3594C33.334 80.9883 33.25 80.5703 33.2031 80.1055V79.5664C33.25 79.0977 33.334 78.6777 33.4551 78.3066C33.5801 77.9355 33.7461 77.6191 33.9531 77.3574C34.1602 77.0918 34.4141 76.8906 34.7148 76.7539C35.0156 76.6133 35.3652 76.543 35.7637 76.543C36.1621 76.543 36.5156 76.6211 36.8242 76.7773C37.1328 76.9297 37.3906 77.1484 37.5977 77.4336C37.8086 77.7188 37.9688 78.0605 38.0781 78.459C38.1875 78.8535 38.2422 79.293 38.2422 79.7773ZM37.1523 79.9004V79.7773C37.1523 79.4609 37.123 79.1641 37.0645 78.8867C37.0059 78.6055 36.9121 78.3594 36.7832 78.1484C36.6543 77.9336 36.4844 77.7656 36.2734 77.6445C36.0625 77.5195 35.8027 77.457 35.4941 77.457C35.2207 77.457 34.9824 77.5039 34.7793 77.5977C34.5801 77.6914 34.4102 77.8184 34.2695 77.9785C34.1289 78.1348 34.0137 78.3145 33.9238 78.5176C33.8379 78.7168 33.7734 78.9238 33.7305 79.1387V80.5508C33.793 80.8242 33.8945 81.0879 34.0352 81.3418C34.1797 81.5918 34.3711 81.7969 34.6094 81.957C34.8516 82.1172 35.1504 82.1973 35.5059 82.1973C35.7988 82.1973 36.0488 82.1387 36.2559 82.0215C36.4668 81.9004 36.6367 81.7344 36.7656 81.5234C36.8984 81.3125 36.9961 81.0684 37.0586 80.791C37.1211 80.5137 37.1523 80.2168 37.1523 79.9004ZM39.3262 79.9004V79.7656C39.3262 79.3086 39.3926 78.8848 39.5254 78.4941C39.6582 78.0996 39.8496 77.7578 40.0996 77.4688C40.3496 77.1758 40.6523 76.9492 41.0078 76.7891C41.3633 76.625 41.7617 76.543 42.2031 76.543C42.6484 76.543 43.0488 76.625 43.4043 76.7891C43.7637 76.9492 44.0684 77.1758 44.3184 77.4688C44.5723 77.7578 44.7656 78.0996 44.8984 78.4941C45.0312 78.8848 45.0977 79.3086 45.0977 79.7656V79.9004C45.0977 80.3574 45.0312 80.7812 44.8984 81.1719C44.7656 81.5625 44.5723 81.9043 44.3184 82.1973C44.0684 82.4863 43.7656 82.7129 43.4102 82.877C43.0586 83.0371 42.6602 83.1172 42.2148 83.1172C41.7695 83.1172 41.3691 83.0371 41.0137 82.877C40.6582 82.7129 40.3535 82.4863 40.0996 82.1973C39.8496 81.9043 39.6582 81.5625 39.5254 81.1719C39.3926 80.7812 39.3262 80.3574 39.3262 79.9004ZM40.4102 79.7656V79.9004C40.4102 80.2168 40.4473 80.5156 40.5215 80.7969C40.5957 81.0742 40.707 81.3203 40.8555 81.5352C41.0078 81.75 41.1973 81.9199 41.4238 82.0449C41.6504 82.166 41.9141 82.2266 42.2148 82.2266C42.5117 82.2266 42.7715 82.166 42.9941 82.0449C43.2207 81.9199 43.4082 81.75 43.5566 81.5352C43.7051 81.3203 43.8164 81.0742 43.8906 80.7969C43.9688 80.5156 44.0078 80.2168 44.0078 79.9004V79.7656C44.0078 79.4531 43.9688 79.1582 43.8906 78.8809C43.8164 78.5996 43.7031 78.3516 43.5508 78.1367C43.4023 77.918 43.2148 77.7461 42.9883 77.6211C42.7656 77.4961 42.5039 77.4336 42.2031 77.4336C41.9062 77.4336 41.6445 77.4961 41.418 77.6211C41.1953 77.7461 41.0078 77.918 40.8555 78.1367C40.707 78.3516 40.5957 78.5996 40.5215 78.8809C40.4473 79.1582 40.4102 79.4531 40.4102 79.7656ZM46.1699 79.9004V79.7656C46.1699 79.3086 46.2363 78.8848 46.3691 78.4941C46.502 78.0996 46.6934 77.7578 46.9434 77.4688C47.1934 77.1758 47.4961 76.9492 47.8516 76.7891C48.207 76.625 48.6055 76.543 49.0469 76.543C49.4922 76.543 49.8926 76.625 50.248 76.7891C50.6074 76.9492 50.9121 77.1758 51.1621 77.4688C51.416 77.7578 51.6094 78.0996 51.7422 78.4941C51.875 78.8848 51.9414 79.3086 51.9414 79.7656V79.9004C51.9414 80.3574 51.875 80.7812 51.7422 81.1719C51.6094 81.5625 51.416 81.9043 51.1621 82.1973C50.9121 82.4863 50.6094 82.7129 50.2539 82.877C49.9023 83.0371 49.5039 83.1172 49.0586 83.1172C48.6133 83.1172 48.2129 83.0371 47.8574 82.877C47.502 82.7129 47.1973 82.4863 46.9434 82.1973C46.6934 81.9043 46.502 81.5625 46.3691 81.1719C46.2363 80.7812 46.1699 80.3574 46.1699 79.9004ZM47.2539 79.7656V79.9004C47.2539 80.2168 47.291 80.5156 47.3652 80.7969C47.4395 81.0742 47.5508 81.3203 47.6992 81.5352C47.8516 81.75 48.041 81.9199 48.2676 82.0449C48.4941 82.166 48.7578 82.2266 49.0586 82.2266C49.3555 82.2266 49.6152 82.166 49.8379 82.0449C50.0645 81.9199 50.252 81.75 50.4004 81.5352C50.5488 81.3203 50.6602 81.0742 50.7344 80.7969C50.8125 80.5156 50.8516 80.2168 50.8516 79.9004V79.7656C50.8516 79.4531 50.8125 79.1582 50.7344 78.8809C50.6602 78.5996 50.5469 78.3516 50.3945 78.1367C50.2461 77.918 50.0586 77.7461 49.832 77.6211C49.6094 77.4961 49.3477 77.4336 49.0469 77.4336C48.75 77.4336 48.4883 77.4961 48.2617 77.6211C48.0391 77.7461 47.8516 77.918 47.6992 78.1367C47.5508 78.3516 47.4395 78.5996 47.3652 78.8809C47.291 79.1582 47.2539 79.4531 47.2539 79.7656ZM54.3906 74V83H53.3008V74H54.3906ZM58.2637 76.6602L55.498 79.6191L53.9512 81.2246L53.8633 80.0703L54.9707 78.7461L56.9395 76.6602H58.2637ZM57.2734 83L55.0117 79.9766L55.5742 79.0098L58.5508 83H57.2734Z" fill="#1877F2"/>
<path d="M37.0117 33.5L37.6783 29.1566H33.5106V26.338C33.5106 25.1497 34.0928 23.9914 35.9594 23.9914H37.8541V20.2934C37.8541 20.2934 36.1347 20 34.4908 20C31.0586 20 28.8152 22.0803 28.8152 25.8463V29.1566H25V33.5H28.8152V44H33.5106V33.5H37.0117Z" fill="#1877F2"/>
</svg>
