<svg width="64" height="86" viewBox="0 0 64 86" fill="none" xmlns="http://www.w3.org/2000/svg">
<circle cx="32" cy="32" r="32" fill="#1DA1F2" fill-opacity="0.1"/>
<path d="M17.6211 74.4688V83H16.5078V74.4688H17.6211ZM20.3633 74.4688V75.3945H13.7715V74.4688H20.3633ZM22.7305 81.875L24.3594 76.6602H25.0742L24.9336 77.6973L23.2754 83H22.5781L22.7305 81.875ZM21.6348 76.6602L23.0234 81.9336L23.123 83H22.3906L20.5508 76.6602H21.6348ZM26.6328 81.8926L27.957 76.6602H29.0352L27.1953 83H26.4688L26.6328 81.8926ZM25.2324 76.6602L26.8262 81.7871L27.0078 83H26.3164L24.6113 77.6855L24.4707 76.6602H25.2324ZM31.3262 76.6602V83H30.2363V76.6602H31.3262ZM30.1543 74.9785C30.1543 74.8027 30.207 74.6543 30.3125 74.5332C30.4219 74.4121 30.582 74.3516 30.793 74.3516C31 74.3516 31.1582 74.4121 31.2676 74.5332C31.3809 74.6543 31.4375 74.8027 31.4375 74.9785C31.4375 75.1465 31.3809 75.291 31.2676 75.4121C31.1582 75.5293 31 75.5879 30.793 75.5879C30.582 75.5879 30.4219 75.5293 30.3125 75.4121C30.207 75.291 30.1543 75.1465 30.1543 74.9785ZM35.7207 76.6602V77.4922H32.293V76.6602H35.7207ZM33.4531 75.1191H34.5371V81.4297C34.5371 81.6445 34.5703 81.8066 34.6367 81.916C34.7031 82.0254 34.7891 82.0977 34.8945 82.1328C35 82.168 35.1133 82.1855 35.2344 82.1855C35.3242 82.1855 35.418 82.1777 35.5156 82.1621C35.6172 82.1426 35.6934 82.127 35.7441 82.1152L35.75 83C35.6641 83.0273 35.5508 83.0527 35.4102 83.0762C35.2734 83.1035 35.1074 83.1172 34.9121 83.1172C34.6465 83.1172 34.4023 83.0645 34.1797 82.959C33.957 82.8535 33.7793 82.6777 33.6465 82.4316C33.5176 82.1816 33.4531 81.8457 33.4531 81.4238V75.1191ZM39.6465 76.6602V77.4922H36.2188V76.6602H39.6465ZM37.3789 75.1191H38.4629V81.4297C38.4629 81.6445 38.4961 81.8066 38.5625 81.916C38.6289 82.0254 38.7148 82.0977 38.8203 82.1328C38.9258 82.168 39.0391 82.1855 39.1602 82.1855C39.25 82.1855 39.3438 82.1777 39.4414 82.1621C39.543 82.1426 39.6191 82.127 39.6699 82.1152L39.6758 83C39.5898 83.0273 39.4766 83.0527 39.3359 83.0762C39.1992 83.1035 39.0332 83.1172 38.8379 83.1172C38.5723 83.1172 38.3281 83.0645 38.1055 82.959C37.8828 82.8535 37.7051 82.6777 37.5723 82.4316C37.4434 82.1816 37.3789 81.8457 37.3789 81.4238V75.1191ZM43.5488 83.1172C43.1074 83.1172 42.707 83.043 42.3477 82.8945C41.9922 82.7422 41.6855 82.5293 41.4277 82.2559C41.1738 81.9824 40.9785 81.6582 40.8418 81.2832C40.7051 80.9082 40.6367 80.498 40.6367 80.0527V79.8066C40.6367 79.291 40.7129 78.832 40.8652 78.4297C41.0176 78.0234 41.2246 77.6797 41.4863 77.3984C41.748 77.1172 42.0449 76.9043 42.377 76.7598C42.709 76.6152 43.0527 76.543 43.4082 76.543C43.8613 76.543 44.252 76.6211 44.5801 76.7773C44.9121 76.9336 45.1836 77.1523 45.3945 77.4336C45.6055 77.7109 45.7617 78.0391 45.8633 78.418C45.9648 78.793 46.0156 79.2031 46.0156 79.6484V80.1348H41.2812V79.25H44.9316V79.168C44.916 78.8867 44.8574 78.6133 44.7559 78.3477C44.6582 78.082 44.502 77.8633 44.2871 77.6914C44.0723 77.5195 43.7793 77.4336 43.4082 77.4336C43.1621 77.4336 42.9355 77.4863 42.7285 77.5918C42.5215 77.6934 42.3438 77.8457 42.1953 78.0488C42.0469 78.252 41.9316 78.5 41.8496 78.793C41.7676 79.0859 41.7266 79.4238 41.7266 79.8066V80.0527C41.7266 80.3535 41.7676 80.6367 41.8496 80.9023C41.9355 81.1641 42.0586 81.3945 42.2188 81.5938C42.3828 81.793 42.5801 81.9492 42.8105 82.0625C43.0449 82.1758 43.3105 82.2324 43.6074 82.2324C43.9902 82.2324 44.3145 82.1543 44.5801 81.998C44.8457 81.8418 45.0781 81.6328 45.2773 81.3711L45.9336 81.8926C45.7969 82.0996 45.623 82.2969 45.4121 82.4844C45.2012 82.6719 44.9414 82.8242 44.6328 82.9414C44.3281 83.0586 43.9668 83.1172 43.5488 83.1172ZM48.3652 77.6562V83H47.2812V76.6602H48.3359L48.3652 77.6562ZM50.3457 76.625L50.3398 77.6328C50.25 77.6133 50.1641 77.6016 50.082 77.5977C50.0039 77.5898 49.9141 77.5859 49.8125 77.5859C49.5625 77.5859 49.3418 77.625 49.1504 77.7031C48.959 77.7812 48.7969 77.8906 48.6641 78.0312C48.5312 78.1719 48.4258 78.3398 48.3477 78.5352C48.2734 78.7266 48.2246 78.9375 48.2012 79.168L47.8965 79.3438C47.8965 78.9609 47.9336 78.6016 48.0078 78.2656C48.0859 77.9297 48.2051 77.6328 48.3652 77.375C48.5254 77.1133 48.7285 76.9102 48.9746 76.7656C49.2246 76.6172 49.5215 76.543 49.8652 76.543C49.9434 76.543 50.0332 76.5527 50.1348 76.5723C50.2363 76.5879 50.3066 76.6055 50.3457 76.625Z" fill="#1DA1F2"/>
<path d="M41.5331 26.8579C41.5483 27.0711 41.5483 27.2843 41.5483 27.4975C41.5483 34 36.5991 41.4924 27.5533 41.4924C24.7665 41.4924 22.1777 40.6853 20 39.2843C20.396 39.33 20.7766 39.3452 21.1878 39.3452C23.4873 39.3452 25.6041 38.5686 27.2944 37.2437C25.132 37.198 23.3198 35.7818 22.6954 33.8325C23 33.8782 23.3046 33.9086 23.6244 33.9086C24.066 33.9086 24.5077 33.8477 24.9188 33.7412C22.665 33.2843 20.9746 31.3046 20.9746 28.9137V28.8528C21.6294 29.2183 22.3909 29.4467 23.1979 29.4772C21.873 28.5939 21.0051 27.0863 21.0051 25.3807C21.0051 24.467 21.2487 23.6294 21.6751 22.8985C24.0964 25.8832 27.736 27.8324 31.8172 28.0457C31.7411 27.6802 31.6954 27.2995 31.6954 26.9188C31.6954 24.2081 33.8883 22 36.6142 22C38.0304 22 39.3096 22.5939 40.2081 23.5533C41.3198 23.3401 42.3858 22.9289 43.33 22.3655C42.9644 23.5076 42.1878 24.467 41.1675 25.0761C42.1574 24.9696 43.1168 24.6954 44 24.3147C43.3301 25.2893 42.4924 26.1573 41.5331 26.8579V26.8579Z" fill="#1DA1F2"/>
</svg>
