<svg id="Layer_1" data-name="Layer 1" xmlns="http://www.w3.org/2000/svg" viewBox="0 0 398.67 95"><defs><style>.cls-1{fill:#f7941d;}.cls-2{fill:#2b3990;}</style></defs><path class="cls-1" d="M72,42,96.8,73q5.25,6.54,9,8.88a11.09,11.09,0,0,0,5.82,1.66V85.5H75V83.58c2.32-.2,3.81-.57,4.49-1.09a2.33,2.33,0,0,0,1-1.92q0-2.19-4.78-8.21L59.56,52.05,57,54.23V73.45c0,3.68.21,6,.62,6.86A5.3,5.3,0,0,0,60,82.62a12.51,12.51,0,0,0,5.67,1V85.5H30.11V83.58h2.34a9.71,9.71,0,0,0,4.93-1.09A4.72,4.72,0,0,0,39.46,80c.38-.83.57-3,.57-6.55V27.12q0-5.4-.57-6.75A5.2,5.2,0,0,0,37.14,18a9.33,9.33,0,0,0-4.69-1H30.11V15.07H65.17V17a11.45,11.45,0,0,0-5.45,1,5,5,0,0,0-2.14,2.44c-.41.87-.62,3.08-.62,6.65V49L83.09,27.9q5.46-4.41,5.45-7.06a3.46,3.46,0,0,0-2.23-3.12c-.76-.38-2.65-.63-5.66-.73V15.07h27.48V17a15.35,15.35,0,0,0-5.79,1.33c-1.41.7-4.64,3.11-9.69,7.19Z" transform="translate(-30.11 -13.46)"/><path class="cls-1" d="M126.2,50.18V48.36a33.72,33.72,0,0,0,8.21-3.19,12.23,12.23,0,0,0,4-4.52A12.8,12.8,0,0,0,140,34.5a10,10,0,0,0-3.14-7.41A10.71,10.71,0,0,0,129.06,24q-7.28,0-12.37,7.69L114.77,31q3.75-8.68,9.59-13a21.2,21.2,0,0,1,13-4.36,16.93,16.93,0,0,1,12.08,4.46,13.9,13.9,0,0,1,4.75,10.44A14.22,14.22,0,0,1,152,36a19.08,19.08,0,0,1-6.93,6.36,24.56,24.56,0,0,1,9.27,7.3,17.85,17.85,0,0,1,3.19,10.88,25.09,25.09,0,0,1-8,18.73q-8,7.71-21.37,7.71-8.94,0-13-3a6.27,6.27,0,0,1-3-5.35,5.79,5.79,0,0,1,5.66-5.76,7.37,7.37,0,0,1,3.22.72A66.4,66.4,0,0,1,127,78.21q5.07,4.13,9.48,4.13a8.62,8.62,0,0,0,6.6-3,11,11,0,0,0,2.75-7.72,20.09,20.09,0,0,0-5-13.11Q135.81,52.47,126.2,50.18Z" transform="translate(-30.11 -13.46)"/><path class="cls-2" d="M213.62,13.46l.58,23.48h-2.13a24.1,24.1,0,0,0-7.41-14.21q-5.9-5.39-12.75-5.38a11.94,11.94,0,0,0-8.39,2.84,8.61,8.61,0,0,0-3.09,6.51,7.9,7.9,0,0,0,1.09,4.16,17.48,17.48,0,0,0,4.83,4.83,109.75,109.75,0,0,0,11.28,6.08Q210,47.85,214.3,53.25a19.41,19.41,0,0,1,4.26,12.36,20,20,0,0,1-6.89,15.2q-6.88,6.36-17.47,6.36a28.27,28.27,0,0,1-6.29-.68A48.27,48.27,0,0,1,180.48,84a11.29,11.29,0,0,0-4.1-1,5.13,5.13,0,0,0-2.86,1,7.28,7.28,0,0,0-2.44,3.16h-1.92V60.52h1.92q2.28,11.22,8.8,17.11t14.06,5.9c3.87,0,7-1,9.27-3.17a9.57,9.57,0,0,0,2.13-12.21,15.69,15.69,0,0,0-4-4.44,61.35,61.35,0,0,0-9.56-5.48q-9.6-4.73-13.81-8a24.58,24.58,0,0,1-6.47-7.43,18.45,18.45,0,0,1-2.26-9,19.14,19.14,0,0,1,6.18-14.34A21.62,21.62,0,0,1,191,13.46a26.77,26.77,0,0,1,6.66.83,34.26,34.26,0,0,1,5.94,2.31,14,14,0,0,0,4.91,1.69,2.79,2.79,0,0,0,2.13-.83c.52-.55,1-1.89,1.46-4Z" transform="translate(-30.11 -13.46)"/><path class="cls-2" d="M245.67,19.17V36.94H257.2v5.14H245.67v30a22.81,22.81,0,0,0,.39,5.43,3.91,3.91,0,0,0,1.38,2,3.09,3.09,0,0,0,1.81.75q3.39,0,6.4-5.14l1.55,1.15q-4.2,10-13.66,10a12.06,12.06,0,0,1-7.81-2.57,11.36,11.36,0,0,1-4.08-5.74c-.35-1.18-.52-4.36-.52-9.56V42.08h-6.34V40.26a67,67,0,0,0,11.14-9.71,59.06,59.06,0,0,0,8-11.38Z" transform="translate(-30.11 -13.46)"/><path class="cls-2" d="M308.73,36.94V75q0,5.57,1,6.94c.69.91,2.1,1.49,4.21,1.73V85.5H294.19V79a24.93,24.93,0,0,1-7,6,16,16,0,0,1-7.79,1.9,11.46,11.46,0,0,1-7.3-2.52,12.37,12.37,0,0,1-4.29-5.89q-1.08-3.39-1.09-11.8V47.48q0-5.5-1-6.85c-.67-.9-2.09-1.49-4.23-1.77V36.94h19.79V70.13a27.52,27.52,0,0,0,.49,6.7,4.41,4.41,0,0,0,1.56,2.28,4,4,0,0,0,2.47.78,6,6,0,0,0,3.37-1,21.33,21.33,0,0,0,5-5.46v-26q0-5.5-1-6.85t-4.24-1.77V36.94Z" transform="translate(-30.11 -13.46)"/><path class="cls-2" d="M368.21,15.07V71a37.58,37.58,0,0,0,.31,6.7,4.22,4.22,0,0,0,1.58,2.54,8.36,8.36,0,0,0,4.08,1V83l-20.52,4V79.27a25.49,25.49,0,0,1-6.57,6.08A13.15,13.15,0,0,1,340.58,87q-9.3,0-14.71-8.31-4.35-6.75-4.36-16.57a34.86,34.86,0,0,1,2.7-14,21,21,0,0,1,7.41-9.38,17.74,17.74,0,0,1,10.1-3.17,13.64,13.64,0,0,1,6.18,1.35,20.72,20.72,0,0,1,5.76,4.73V26.91c0-3.7-.15-5.94-.46-6.7A4.47,4.47,0,0,0,351.33,18c-.83-.49-2.39-.73-4.68-.73V15.07ZM353.66,48q-3.84-7.38-9.4-7.37a4.77,4.77,0,0,0-3.16,1c-1.29,1.08-2.33,3-3.15,5.67s-1.22,6.84-1.22,12.41q0,9.2,1.35,13.61a13.24,13.24,0,0,0,3.69,6.39,5,5,0,0,0,3.27,1q4.57,0,8.62-7.16Z" transform="translate(-30.11 -13.46)"/><path class="cls-2" d="M402.44,87.48l-15.69-36c-2.35-5.43-4.09-8.78-5.22-10a8.77,8.77,0,0,0-4.08-2.6V36.94h25.82v1.92a6,6,0,0,0-3.58,1,2.68,2.68,0,0,0-1,2.12q0,2,2.59,7.8l8.32,19,5.66-14.7q3.06-7.84,3.06-10.91A3.9,3.9,0,0,0,417,40.11c-.85-.77-2.35-1.18-4.49-1.25V36.94h16.26v1.92a6.09,6.09,0,0,0-3.9,1.84q-1.5,1.59-5,10.78L406,87.48q-5.25,13.5-7.79,16.62a11.15,11.15,0,0,1-9,4.36,9.9,9.9,0,0,1-7-2.46,7.8,7.8,0,0,1-2.68-6,7,7,0,0,1,1.85-5,6,6,0,0,1,4.54-2,5.49,5.49,0,0,1,4.18,1.66c1.06,1.11,1.6,2.82,1.64,5.14a5.24,5.24,0,0,0,.47,2.55,1.37,1.37,0,0,0,1.19.57,3.83,3.83,0,0,0,2.65-1.51q2.07-2.18,4.88-10Z" transform="translate(-30.11 -13.46)"/></svg>